<?xml version="1.0" encoding="UTF-8"?>
<svg width="47px" height="47px" viewBox="0 0 47 47" version="1.1" xmlns="http://www.w3.org/2000/svg" xmlns:xlink="http://www.w3.org/1999/xlink">
    <!-- Generator: Sketch 54.1 (76490) - https://sketchapp.com -->
    <title>g45</title>
    <desc>Created with Sketch.</desc>
    <g id="Page-1" stroke="none" stroke-width="1" fill="none" fill-rule="evenodd">
        <g id="SOC---Home" transform="translate(-841.000000, -6437.000000)" fill="#FFFFFF">
            <g id="Header" transform="translate(0.000000, 6407.000000)">
                <g id="g45" transform="translate(841.000000, 30.000000)">
                    <path d="M23.4676968,0 C17.0204294,0 11.346953,2.38266618 6.96263292,6.82467379 C2.44984279,11.3964562 0,17.3193802 0,23.5003708 C0,29.7451364 2.38523645,35.5397687 6.89876918,40.0470345 C11.4115593,44.5535587 17.2788548,47 23.4676968,47 C29.6565388,47 35.653047,44.5535587 40.2950498,39.9825179 C44.6793699,35.668802 47,29.9386863 47,23.5003708 C47,17.1265719 44.6793699,11.3319396 40.2304435,6.88919043 C35.7176534,2.38266618 29.9149642,0 23.4676968,0 Z M23.5323032,4.24994083 C28.8188842,4.24994083 33.5254934,6.24550719 37.2006288,9.91553985 C40.8104154,13.5210559 42.7448926,18.2856467 42.7448926,23.5003708 C42.7448926,28.7796115 40.8750217,33.4151691 37.2644926,36.95691 C33.4601444,40.6907177 28.5604588,42.6870257 23.5315606,42.6870257 C18.438056,42.6870257 13.6668405,40.6914593 9.99244758,37.0214267 C6.3173121,33.3506524 4.25436476,28.5222866 4.25436476,23.5003708 C4.25436476,18.4139384 6.3173121,13.5855725 9.99244758,9.85102321 C13.6029767,6.18173212 18.2457221,4.24994083 23.5323032,4.24994083 Z" id="path47"></path>
                    <path d="M22.9224186,19.4817886 C21.6123184,16.9911995 19.3770972,16 16.7825132,16 C13.0059115,16 10,18.7851256 10,23.5 C10,28.2942314 12.8258642,31 16.9113276,31 C19.5322599,31 21.7667492,29.4998474 23,27.2236748 L20.1221709,25.6968155 C19.4795631,27.3037949 18.503941,27.7860413 17.2706902,27.7860413 C15.1379349,27.7860413 14.1623128,25.9379388 14.1623128,23.500763 C14.1623128,21.0635873 14.984236,19.2147217 17.2706902,19.2147217 C17.8869497,19.2147217 19.1202004,19.5634347 19.8396577,21.169651 L22.9224186,19.4817886 Z" id="path49"></path>
                    <path d="M36.9231505,19.4817886 C35.6123184,16.9911995 33.3778291,16 30.7832451,16 C27.0066434,16 24,18.7851256 24,23.5 C24,28.2942314 26.8265961,31 30.9113276,31 C33.5322599,31 35.7667492,29.4998474 37,27.2236748 L34.1221709,25.6968155 C33.480295,27.3037949 32.503941,27.7860413 31.2706902,27.7860413 C29.1386668,27.7860413 28.1615809,25.9379388 28.1615809,23.500763 C28.1615809,21.0635873 28.984236,19.2147217 31.2706902,19.2147217 C31.8869497,19.2147217 33.1202004,19.5634347 33.8403896,21.169651 L36.9231505,19.4817886 Z" id="path51"></path>
                </g>
            </g>
        </g>
    </g>
</svg>